<?xml version="1.0" encoding="utf-8"?>
<!-- Generator: Adobe Illustrator 16.0.0, SVG Export Plug-In . SVG Version: 6.00 Build 0)  -->
<!DOCTYPE svg PUBLIC "-//W3C//DTD SVG 1.1//EN" "http://www.w3.org/Graphics/SVG/1.1/DTD/svg11.dtd">
<svg version="1.1" id="Layer_1" xmlns="http://www.w3.org/2000/svg" xmlns:xlink="http://www.w3.org/1999/xlink" x="0px" y="0px"
	 width="69.289px" height="24.415px" viewBox="0 63.967 69.289 24.415" enable-background="new 0 63.967 69.289 24.415"
	 xml:space="preserve">
<g>
	<g>
		<path fill="#CE2246" d="M0,87.024V65.093c0-0.31,0.111-0.572,0.331-0.795c0.221-0.221,0.497-0.331,0.827-0.331h6.296
			c5.079,0,7.62,2.252,7.62,6.759c0,1.867-0.422,3.336-1.261,4.402c-0.84,1.066-1.977,1.777-3.412,2.129l4.637,8.733
			c0.09,0.155,0.134,0.319,0.134,0.497c0,0.443-0.227,0.854-0.681,1.229c-0.451,0.376-0.932,0.564-1.439,0.564
			c-0.575,0-1.038-0.345-1.389-1.029l-4.84-9.506H3.478v9.272c0,0.354-0.172,0.638-0.513,0.847
			c-0.344,0.211-0.757,0.315-1.244,0.315c-0.463,0-0.866-0.104-1.208-0.312C0.171,87.66,0,87.376,0,87.024z M3.478,74.966h3.977
			c2.735,0,4.108-1.314,4.108-3.943c0-2.627-1.373-3.94-4.108-3.94H3.478V74.966z"/>
		<path fill="#CE2246" d="M16.13,80.994v-9.64c0-2.539,0.674-4.405,2.02-5.6c1.348-1.191,3.148-1.788,5.4-1.788
			s4.059,0.597,5.418,1.788c1.357,1.193,2.035,3.061,2.035,5.6v9.64c0,2.542-0.678,4.405-2.035,5.6
			c-1.359,1.191-3.166,1.788-5.418,1.788s-4.053-0.597-5.4-1.788C16.804,85.399,16.13,83.536,16.13,80.994z M19.643,80.994
			c0,2.85,1.302,4.274,3.907,4.274c1.259,0,2.231-0.354,2.916-1.062c0.686-0.706,1.025-1.776,1.025-3.214v-9.639
			c0-1.437-0.34-2.506-1.025-3.213c-0.685-0.709-1.657-1.062-2.916-1.062c-2.605,0-3.907,1.424-3.907,4.272V80.994z"/>
		<path fill="#CE2246" d="M32.237,87.024V65.125c0-0.771,0.586-1.158,1.757-1.158c0.617,0,1.115,0.138,1.489,0.414
			c0.377,0.276,0.763,0.802,1.161,1.574l7.354,14.343V65.093c0-0.375,0.17-0.656,0.514-0.844c0.342-0.188,0.756-0.282,1.242-0.282
			s0.899,0.095,1.244,0.282c0.34,0.188,0.514,0.469,0.514,0.844v21.932c0,0.353-0.174,0.636-0.514,0.846
			c-0.345,0.209-0.758,0.312-1.244,0.312c-0.928,0-1.623-0.432-2.088-1.291L35.75,71.817v15.207c0,0.353-0.17,0.636-0.513,0.846
			c-0.345,0.209-0.758,0.312-1.243,0.312c-0.465,0-0.873-0.104-1.227-0.312C32.413,87.66,32.237,87.376,32.237,87.024z"/>
		<path fill="#CE2246" d="M49.007,87.024V65.093c0-0.375,0.171-0.656,0.514-0.844c0.342-0.188,0.756-0.282,1.242-0.282
			s0.902,0.095,1.244,0.282c0.343,0.188,0.513,0.469,0.513,0.844v21.932c0,0.353-0.17,0.636-0.513,0.846
			c-0.342,0.209-0.758,0.312-1.244,0.312c-0.463,0-0.873-0.104-1.225-0.312C49.185,87.66,49.007,87.376,49.007,87.024z"/>
		<path fill="#CE2246" d="M54.017,87.024V65.125c0-0.771,0.585-1.158,1.758-1.158c0.617,0,1.115,0.138,1.488,0.414
			c0.377,0.276,0.764,0.802,1.162,1.574l7.354,14.343V65.093c0-0.375,0.172-0.656,0.514-0.844c0.344-0.188,0.758-0.282,1.242-0.282
			c0.486,0,0.899,0.095,1.241,0.282c0.343,0.188,0.513,0.469,0.513,0.844v21.932c0,0.353-0.17,0.636-0.513,0.846
			c-0.342,0.209-0.755,0.312-1.241,0.312c-0.926,0-1.621-0.432-2.087-1.291L57.53,71.817v15.207c0,0.353-0.171,0.636-0.515,0.846
			c-0.342,0.209-0.758,0.312-1.241,0.312c-0.464,0-0.873-0.104-1.228-0.312C54.194,87.66,54.017,87.376,54.017,87.024z"/>
	</g>
</g>
</svg>
